<svg width="20" height="20" viewBox="0 0 20 20" fill="none" xmlns="http://www.w3.org/2000/svg">
<path d="M18.7086 14.4586C18.5047 14.2414 17.7847 13.5992 16.4613 12.7496C15.1281 11.8926 14.1449 11.3582 13.8629 11.2336C13.838 11.2226 13.8106 11.2185 13.7836 11.2219C13.7567 11.2253 13.7311 11.2359 13.7097 11.2527C13.2554 11.607 12.4906 12.2578 12.4496 12.293C12.1847 12.5199 12.1847 12.5199 11.9679 12.4492C11.5867 12.3242 10.4023 11.6953 9.37028 10.6609C8.33825 9.62656 7.67692 8.41289 7.55192 8.03203C7.48044 7.81484 7.48044 7.81484 7.70817 7.55C7.74333 7.50898 8.3945 6.74414 8.7488 6.29023C8.7656 6.26886 8.77626 6.24331 8.77964 6.21633C8.78301 6.18935 8.77896 6.16196 8.76794 6.13711C8.64333 5.85469 8.10895 4.87187 7.25192 3.53867C6.40114 2.21562 5.75974 1.4957 5.54255 1.2918C5.52262 1.27299 5.49798 1.25991 5.47124 1.25392C5.4445 1.24794 5.41664 1.24929 5.3906 1.25781C4.63141 1.51872 3.89891 1.85161 3.2031 2.25195C2.53139 2.64243 1.89545 3.09144 1.3027 3.59375C1.28201 3.61134 1.2665 3.63423 1.25783 3.65997C1.24916 3.68571 1.24766 3.71332 1.25349 3.73984C1.33513 4.12031 1.72536 5.70859 2.9363 7.90859C4.17185 10.1539 5.0281 11.3043 6.84255 13.1125C8.657 14.9207 9.84372 15.8285 12.0914 17.0641C14.2914 18.275 15.8804 18.6656 16.2601 18.7465C16.2867 18.7523 16.3144 18.7507 16.3402 18.7421C16.3659 18.7334 16.3889 18.7179 16.4066 18.6973C16.9088 18.1045 17.3577 17.4686 17.748 16.7969C18.1483 16.101 18.4812 15.3685 18.7422 14.6094C18.7505 14.5835 18.7518 14.5559 18.7459 14.5294C18.74 14.5029 18.7271 14.4784 18.7086 14.4586Z" fill="white"/>
</svg>
