<?xml version="1.0" encoding="utf-8"?>
<!-- Generator: Adobe Illustrator 24.0.2, SVG Export Plug-In . SVG Version: 6.00 Build 0)  -->
<svg version="1.1" id="Layer_1" xmlns="http://www.w3.org/2000/svg" xmlns:xlink="http://www.w3.org/1999/xlink" x="0px" y="0px"
	 viewBox="0 0 512 512" style="enable-background:new 0 0 512 512;" xml:space="preserve">
<style type="text/css">
	.st0{fill:#FF0100;}
</style>
<path class="st0" d="M426.7,149.3h-37.1c24.4-21.5,38-52.8,37.1-85.3c0-11.8-9.6-21.3-21.3-21.3S384,52.2,384,64
	c0,55.9-50.6,75.3-89,81.9c14.2-25.2,22.7-53.1,25-81.9c0-35.3-28.7-64-64-64s-64,28.7-64,64c2.3,28.8,10.8,56.8,25,81.9
	c-38.5-6.6-89-26-89-81.9c0-11.8-9.6-21.3-21.3-21.3S85.3,52.2,85.3,64c-0.9,32.5,12.7,63.8,37.1,85.3H85.3
	C38.2,149.3,0,187.5,0,234.7V256c0,23.6,19.1,42.7,42.7,42.7v106.7c0.1,58.9,47.8,106.6,106.7,106.7h213.3
	c58.9-0.1,106.6-47.8,106.7-106.7V298.7c23.6,0,42.7-19.1,42.7-42.7v-21.3C512,187.5,473.8,149.3,426.7,149.3z M256,42.7
	c11.8,0,21.3,9.6,21.3,21.3c-2.6,22.7-9.8,44.6-21.3,64.3c-11.5-19.7-18.8-41.6-21.3-64.3C234.7,52.2,244.2,42.7,256,42.7z
	 M42.7,234.7c0-23.6,19.1-42.7,42.7-42.7h149.3v64h-192V234.7z M85.3,405.3V298.7h149.3v170.7h-85.3
	C114,469.3,85.3,440.7,85.3,405.3z M426.7,405.3c0,35.3-28.7,64-64,64h-85.3V298.7h149.3V405.3z M277.3,256v-64h149.3
	c23.6,0,42.7,19.1,42.7,42.7V256H277.3z"/>
</svg>
