<svg xmlns="http://www.w3.org/2000/svg" width="1720" height="88" fill="none" xmlns:v="https://vecta.io/nano"><style><![CDATA[.B{fill:#fff}.C{color-interpolation-filters:sRGB}.D{flood-opacity:0}]]></style><path fill="url(#D)" d="M0 0h1720v88H0z"/><path d="M40 25.583v36.833c0 .596.487 1.083 1.083 1.083h49.833c.596 0 1.083-.487 1.083-1.083V25.583c0-.596-.487-1.083-1.083-1.083H41.083c-.596 0-1.083.488-1.083 1.083zM84.395 57.53h-36.79c-.596 0-1.083-.487-1.083-1.083V31.553c0-.596.487-1.083 1.083-1.083h36.79c.596 0 1.083.488 1.083 1.083v24.895c0 .596-.488 1.083-1.083 1.083zm-3.488-13.205l-4.604 5.752c-.184.238-.531.271-.758.087l-2.329-1.874c-.228-.184-.271-.531-.087-.758l2.557-3.185a.54.54 0 0 0 0-.682l-2.578-3.207c-.184-.238-.152-.574.087-.758l2.329-1.874c.238-.184.574-.152.758.087l4.29 5.352.325.39a.51.51 0 0 1 .011.672zm-24.602.022l2.557 3.185c.184.238.152.574-.087.758l-2.318 1.863c-.238.184-.574.152-.758-.087l-4.615-5.742a.54.54 0 0 1 0-.682l.087-.108 4.561-5.633c.184-.238.531-.271.758-.087l2.329 1.874c.238.184.271.531.087.758l-2.6 3.228c-.152.195-.162.477 0 .672z" fill="#21acb8"/><path d="M128.79 32.69l-4.16 24.18c-.65 0-1.3.13-1.69.13h-1.69c-.26 0-.52 0-.78-.13s-.39-.26-.65-.39c-.39-.52-.65-1.04-.65-1.69l-.65-3.77-1.04-8.84-1.04 8.84-1.04 5.72c-1.17.13-2.34.13-3.64.13-.26 0-.52 0-.65-.13-.26-.13-.39-.26-.52-.39a2.15 2.15 0 0 1-.65-1.56l-1.95-10.92c-.91-4.94-1.3-8.45-1.69-10.14v-.39c0-.13 0-.39.26-.39.26-.13.39-.13.65-.13h3.12l1.69 11.31c.52 2.99.78 5.98.91 8.97h.26l.91-8.97 1.56-9.23c0-.26.13-.65.26-.78l.26-.26a.24.24 0 0 1 .39 0h2.73l1.82 10.4c.52 2.99.78 5.98.91 8.97h.26a109.1 109.1 0 0 1 .78-8.97l1.56-10.4c0-.26.13-.65.26-.78l.26-.26c.13 0 .26-.13.39 0h3.25v-.13zm11.05.65c.91.39 1.69 1.17 2.21 2.08.65 1.3.91 2.86.78 4.29 0 2.86-.52 4.81-1.82 6.11-1.3 1.17-2.99 1.69-4.68 1.69h-.26v8.71c0 .26 0 .39-.13.52s-.52.13-1.04.13h-2.47v-23.4c0-.26 0-.39.13-.52s.26-.13.52-.13h3.25c1.3-.13 2.47 0 3.51.52zm-1.82 9.62c.39-1.17.52-2.47.39-3.77 0-.91-.13-1.69-.39-2.47-.13-.26-.26-.39-.52-.65-.26-.13-.52-.26-.78-.26h-.91v7.93h.65c.26 0 .65 0 .91-.26.39.13.52-.13.65-.52zm14.3 13.26c-.91-.91-1.56-2.08-1.82-3.51-.52-2.34-.78-4.81-.65-7.28 0-8.84 2.34-13.26 6.89-13.26 1.43 0 2.21.13 2.6.52.26.13.39.39.52.65s.13.52.13.78c0 .78-.13 1.56-.52 2.34-.52-.39-1.17-.52-1.82-.52s-1.17.26-1.69.52c-.52.39-.91.78-1.17 1.3-.91 2.34-1.3 4.68-1.04 7.15 0 1.56.13 3.12.26 4.68 0 .91.26 1.69.78 2.34.26.26.52.39.78.52s.65.13.91.13c.91.13 1.82-.13 2.6-.52.39.65.52 1.43.52 2.21a2.45 2.45 0 0 1-.26 1.04c-.13.39-.52.65-.78.78-.91.52-1.95.78-2.99.65-1.17.52-2.34.13-3.25-.52zm11.44.52c-.65-.26-1.3-.78-1.69-1.56a6.31 6.31 0 0 1-.65-3.51c-.13-1.56.26-3.12 1.04-4.42.39-.39.78-.78 1.3-.91.52-.26 1.04-.26 1.56-.26.39 0 .78 0 1.04.13l1.04.39v-2.34c0-.39-.13-.65-.26-.91-.39-.13-.78-.26-1.04-.26-.65 0-1.43.13-2.08.26s-1.43.26-2.08.52c-.39-.65-.52-1.43-.52-2.21 0-.26 0-.52.13-.65.13-.26.13-.39.26-.52.52-.26 1.17-.52 1.82-.65 1.04-.26 2.21-.39 3.25-.26.65-.13 1.17 0 1.82.13s1.04.39 1.56.78c.39.52.65 1.04.78 1.56s.26 1.17.13 1.69v1.69l-.13 11.05c-1.56.78-3.25 1.17-4.94 1.04-.91-.39-1.69-.52-2.34-.78zm3.64-3.12V49.2c-.26-.13-.65-.26-.91-.26s-.39 0-.52.13l-.39.39c-.26.65-.39 1.43-.26 2.21 0 .65.13 1.17.26 1.82.13.39.39.52.91.52s.78-.13.91-.39zm6.37-12.87a8.17 8.17 0 0 1 4.81-1.56c.65-.13 1.3 0 1.82.39.13.13.26.39.39.65s.13.52.13.78c0 .78-.13 1.56-.39 2.21-.39-.13-.78-.26-1.3-.26-.26 0-.52 0-.78.13s-.52.26-.65.39v12.74c0 .26 0 .39-.13.52s-.52.13-1.04.13h-2.6V40.75h-.26zm10.01 15.73c-.39-.26-.78-.65-1.17-1.17-.26-.39-.52-.91-.52-1.43-.52-1.95-.65-3.9-.52-5.85 0-5.98 1.95-8.97 5.85-8.97a6.04 6.04 0 0 1 2.99.78 3.07 3.07 0 0 1 1.04 1.17c.26.39.52.91.52 1.43.39 1.69.65 3.51.52 5.33 0 3.25-.39 5.46-1.43 7.02-.52.65-1.17 1.17-1.82 1.56-.78.39-1.56.52-2.47.52-.91.26-1.95.13-2.99-.39zm4.03-2.86c.26-.52.39-1.04.39-1.69.13-1.3.13-2.47.13-3.77s0-2.47-.13-3.77c.13-.52-.13-1.17-.39-1.69l-.39-.39c-.13-.13-.26-.13-.52-.13-.39 0-.78.39-.91 1.3-.39 1.43-.52 2.99-.39 4.55 0 1.3 0 2.6.13 3.9.13.52.26 1.17.39 1.69l.39.39c.13.13.26.13.52.13.13 0 .39-.13.52-.13 0-.13.13-.26.26-.39zm8.06 2.21c-.78-1.17-1.17-2.47-1.04-3.9v-11.7c0-.26 0-.39.13-.52s.52-.13 1.04-.13h2.6v12.48c0 .39.13.91.26 1.3.13.26.39.39.91.39s.91-.13 1.43-.39V40.1c0-.26 0-.39.13-.52s.39-.13 1.04-.13h2.6V55.7c-.78.39-1.56.78-2.34.91-.91.26-1.82.39-2.73.39-.78.13-1.43 0-2.21-.13-.65-.26-1.3-.52-1.82-1.04zm11.31-.65c0-.78.26-1.43.65-2.08.91.52 1.95.78 2.99.65.52 0 1.04-.13 1.43-.39.26-.26.39-.65.39-1.04 0-.78-.26-1.43-.78-1.95l-2.99-3.12c-.52-.52-.91-1.17-1.3-1.95-.26-.52-.39-1.17-.39-1.82s.13-1.17.26-1.69c.26-.52.65-1.04 1.04-1.43 1.3-.91 2.86-1.3 4.42-1.04 1.17-.13 2.34.13 3.51.65.26.13.39.39.65.65.13.26.26.52.26.91s0 .65-.13.91-.26.65-.52.78c-.91-.52-1.95-.78-2.99-.65-1.04 0-1.69.39-1.69 1.04V44a.28.28 0 0 0 .26.26c.26.39.52.65.78.91l2.47 2.6c.52.65 1.04 1.3 1.43 2.08.26.65.39 1.43.39 2.21 0 .65-.13 1.3-.39 1.95s-.65 1.17-1.17 1.56c-1.17.91-2.6 1.43-4.16 1.43-3.12.13-4.42-.52-4.42-1.82zm21.19-2.73c.13.91.26 1.69.26 2.6 0 .65-.39 1.3-1.43 1.56-1.04.39-2.21.65-3.51.52-.78 0-1.56-.13-2.21-.39s-1.3-.78-1.82-1.43c-.91-1.3-1.43-3.25-1.43-6.37-.13-2.08.13-4.16.78-6.11.39-1.17 1.04-2.21 2.08-2.86.91-.52 2.08-.78 3.12-.65 2.86 0 4.42 1.95 4.42 5.59 0 1.69-.13 3.38-.39 4.94-1.95.26-3.9.52-5.98.39 0 .91.13 1.69.52 2.47.26.52.78.65 1.69.65 1.56 0 2.73-.39 3.9-.91zm-5.59-8.71c-.39 1.17-.52 2.34-.39 3.64.91 0 1.82-.13 2.6-.26.13-.65.13-1.17.13-1.82s0-1.43-.26-2.08c-.13-.13-.26-.39-.39-.39-.13-.13-.39-.13-.52-.13-.39-.13-.78.13-1.17 1.04zm8.32-10.53c0-.39.13-.91.26-1.3.13-.13.26-.26.39-.26.13-.13.39-.13.52-.13.39 0 1.3-.13 2.47-.13v24.7c0 .26 0 .39-.13.52s-.39.13-1.04.13h-2.47V33.21z" class="B"/><g filter="url(#A)"><path d="M562.372 65.075a3.68 3.68 0 0 1-3.491 2.517h-24.495l-39.075.26 9.439-10.051 11.738-12.399h17.898 24.495a3.68 3.68 0 0 1 3.491 2.517l2.471 7.415c.252.755.252 1.571 0 2.327l-2.471 7.415z" fill="#8d55ff"/></g><path d="M498.251 64.67l16.098-16.969h43.188a3.68 3.68 0 0 1 3.489 2.511l1.609 4.804a3.68 3.68 0 0 1 0 2.337l-1.609 4.804a3.68 3.68 0 0 1-3.489 2.511h-59.286z" fill="url(#E)"/><path d="M519.275 60.047h-3.732v-8.198h3.732c2.545 0 4.148 1.566 4.148 4.099s-1.603 4.099-4.148 4.099zm0-7.011h-2.423v5.824h2.423c1.896 0 2.753-.808 2.753-2.912s-.857-2.912-2.753-2.912zm11.691 7.011h-6.559v-8.198h6.559v1.187h-5.237v2.3h5.053v1.175h-5.053v2.349h5.237v1.187zm1.885 0h-1.468l3.659-8.198h1.86l3.658 8.198h-1.493l-.942-2.129h-4.331l-.943 2.129zm2.582-5.812l-1.113 2.496h3.279l-1.113-2.496-.478-1.162h-.098l-.477 1.162zm12.114 5.812h-6.375v-8.198h1.321v7.011h5.054v1.187zm4.292.122c-2.447 0-3.695-1.077-3.695-2.802v-.073h1.322v.196c0 .979.575 1.468 2.373 1.468 1.567 0 2.117-.343 2.117-1.114 0-.71-.416-.979-1.456-1.175l-2.007-.33c-1.382-.245-2.361-.881-2.361-2.227 0-1.187.979-2.386 3.524-2.386 2.398 0 3.487 1.199 3.487 2.802v.073h-1.309v-.159c0-1.003-.6-1.505-2.3-1.505-1.493 0-2.081.367-2.081 1.101 0 .71.416.942 1.383 1.15l1.995.343c1.639.294 2.447 1.04 2.447 2.239 0 1.248-1.016 2.398-3.439 2.398z" class="B"/><g clip-path="url(#H)"><path opacity=".5" d="M536.383 28.342c1.395 1.371-10.11 15.345-25.704 31.201-5.646 5.739-11.046 10.937-15.712 15.17l-4.884.14-.041-1.416 36.36-38.513c5.525-4.702 9.285-7.266 9.981-6.582z" fill="url(#F)"/></g><path d="M305.472 64.816c-5.218 0-8.679-3.411-8.679-8.654s3.461-8.654 8.679-8.654c4.74 0 8.051 2.508 8.051 6.522v.351h-2.985v-.351c0-2.559-1.63-3.938-5.041-3.938-3.938 0-5.845 1.881-5.845 6.07s1.907 6.045 5.845 6.045c3.411 0 5.041-1.355 5.041-3.938v-.326h2.985v.326c0 4.038-3.286 6.547-8.051 6.547zm18.675-.25h-2.683v-5.794l-7.375-11.011h3.311l3.963 5.97 1.405 2.132h.201l1.379-2.132 3.938-5.97h3.336l-7.475 11.062v5.744zm18.151 0h-9.758V47.76h9.406c3.211 0 5.142 1.48 5.142 4.139 0 1.982-1.103 3.462-3.662 3.762v.175c2.86.326 4.264 1.881 4.264 4.089 0 2.885-1.931 4.64-5.392 4.64zm-7.074-14.373v4.615h6.346c1.881 0 2.834-.727 2.834-2.308s-.877-2.308-2.759-2.308h-6.421zm0 6.848v5.092h6.773c2.006 0 2.984-.752 2.984-2.584 0-1.756-1.003-2.508-2.984-2.508h-6.773zm27.665 7.525h-13.444V47.76h13.444v2.433h-10.735v4.716h10.359v2.408h-10.359v4.816h10.735v2.433zm4.819 0h-2.709V47.76h8.729c3.813 0 6.171 1.806 6.171 4.941 0 2.784-1.831 4.49-4.992 4.666v.176c1.305.351 1.907 1.104 2.509 2.157l2.809 4.866h-3.11l-2.684-4.64c-.753-1.329-1.53-1.881-3.637-1.881h-3.086v6.522zm0-14.373v5.769h5.995c2.258 0 3.386-.778 3.386-2.885 0-2.057-1.128-2.885-3.386-2.885h-5.995zm21.14 14.373h-2.709V47.76h3.687l4.841 9.732 1.53 3.487h.201l1.48-3.487 4.791-9.732h3.687v16.806h-2.709v-10.31l.1-2.433h-.201l-1.028 2.433-4.64 9.306h-3.261l-4.641-9.306-1.028-2.433h-.201l.101 2.433v10.309zm28.275.25c-5.268 0-8.754-3.411-8.754-8.654s3.486-8.654 8.754-8.654c5.317 0 8.779 3.411 8.779 8.654s-3.462 8.654-8.779 8.654zm0-2.609c3.988 0 5.919-1.856 5.919-6.045s-1.931-6.07-5.919-6.07-5.895 1.881-5.895 6.07 1.907 6.045 5.895 6.045zm13.489 2.359h-2.709V47.76h2.91l7.525 9.833 2.182 3.135h.201l-.126-3.035V47.76h2.709v16.806h-2.909l-7.575-9.808-2.107-2.96h-.201l.1 2.91v9.858zm22.998 0h-7.65V47.76h7.65c5.217 0 8.503 3.211 8.503 8.403s-3.286 8.403-8.503 8.403zm0-14.373h-4.966v11.94h4.966c3.888 0 5.644-1.656 5.644-5.97s-1.756-5.97-5.644-5.97zm12.278 14.373h-3.01l7.499-16.806h3.813l7.5 16.806h-3.06l-1.932-4.365h-8.879l-1.931 4.365zm5.292-11.915l-2.282 5.117h6.722l-2.283-5.117-.978-2.383h-.201l-.978 2.383zm20.393 11.915h-2.684v-5.794l-7.375-11.011h3.311l3.963 5.97 1.405 2.132h.201l1.379-2.132 3.938-5.97h3.337l-7.475 11.062v5.744z" fill="#ff39f8"/><rect x="298.225" y="18.745" width="67.525" height="19.805" rx="9.902" fill="url(#G)"/><rect x="298.225" y="18.745" width="67.525" height="19.805" rx="9.902" stroke="#8d55ff" stroke-width="2.622"/><path d="M311.288 32.746h-4.76v-8.198h4.589c1.566 0 2.508.722 2.508 2.019 0 .967-.538 1.689-1.787 1.835v.086c1.395.159 2.081.918 2.081 1.994 0 1.407-.943 2.264-2.631 2.264zm-3.451-7.011v2.251h3.096c.918 0 1.383-.355 1.383-1.126s-.429-1.126-1.346-1.126h-3.133zm0 3.34v2.484h3.304c.979 0 1.456-.367 1.456-1.26 0-.857-.489-1.224-1.456-1.224h-3.304zm8.259 3.671h-1.322v-8.198h1.322v8.198zm4.992.123c-2.41 0-4.013-1.664-4.013-4.221s1.725-4.221 4.344-4.221c2.324 0 3.94 1.175 3.94 3.071v.098h-1.456v-.098c0-1.175-.82-1.811-2.521-1.811-1.97 0-2.912.918-2.912 2.961s.93 2.949 2.851 2.949c1.957 0 2.728-.538 2.728-1.921v-.11h-3.034v-1.003h4.344v4.185h-1.2v-1.774h-.085c-.343 1.199-1.383 1.897-2.986 1.897zm9.153 0c-2.41 0-4.013-1.664-4.013-4.221s1.725-4.221 4.344-4.221c2.324 0 3.94 1.175 3.94 3.071v.098h-1.456v-.098c0-1.175-.82-1.811-2.521-1.811-1.97 0-2.912.918-2.912 2.961s.93 2.949 2.851 2.949c1.958 0 2.728-.538 2.728-1.921v-.11h-3.034v-1.003h4.344v4.185h-1.199v-1.774h-.086c-.343 1.199-1.383 1.897-2.986 1.897zm11.943-.123h-6.558v-8.198h6.558v1.187h-5.237v2.3h5.054v1.175h-5.054v2.349h5.237v1.187zm4.468.123c-2.448 0-3.696-1.077-3.696-2.802v-.073h1.322v.196c0 .979.575 1.468 2.374 1.468 1.566 0 2.116-.343 2.116-1.113 0-.71-.416-.979-1.456-1.175l-2.006-.33c-1.383-.245-2.362-.881-2.362-2.227 0-1.187.979-2.386 3.524-2.386 2.398 0 3.487 1.199 3.487 2.802v.073h-1.309v-.159c0-1.003-.599-1.505-2.3-1.505-1.493 0-2.08.367-2.08 1.101 0 .71.416.942 1.382 1.15l1.995.343c1.639.294 2.447 1.04 2.447 2.239 0 1.248-1.016 2.398-3.438 2.398zm8.451-.123h-1.31v-7.011h-3.23v-1.187h7.758v1.187h-3.218v7.011z" class="B"/><path d="M384.918 37.27H374.7V19.448h9.85c3.362 0 5.385 1.569 5.385 4.389 0 2.101-1.156 3.671-3.835 3.99v.186c2.994.346 4.465 1.995 4.465 4.336 0 3.059-2.022 4.921-5.647 4.921zm-7.408-15.242v4.894h6.646c1.97 0 2.968-.771 2.968-2.447s-.919-2.447-2.889-2.447h-6.725zm0 7.262v5.4h7.093c2.101 0 3.125-.798 3.125-2.74 0-1.862-1.05-2.66-3.125-2.66h-7.093zm28.578 7.98h-13.686V19.448h2.837V34.69h10.849v2.58zm3.672 0h-3.152l7.854-17.822h3.993l7.854 17.822h-3.205l-2.022-4.628h-9.299l-2.023 4.628zm5.543-12.635l-2.39 5.426h7.039l-2.39-5.426-1.025-2.527h-.21l-1.024 2.527zm20.882 12.901c-5.463 0-9.088-3.618-9.088-9.177s3.625-9.177 9.088-9.177c4.965 0 8.432 2.66 8.432 6.916v.372h-3.126v-.372c0-2.713-1.707-4.176-5.279-4.176-4.124 0-6.121 1.995-6.121 6.437s1.997 6.411 6.121 6.411c3.572 0 5.279-1.436 5.279-4.176v-.346h3.126v.346c0 4.283-3.441 6.943-8.432 6.943zm13.359-.266h-2.837V19.448h2.837v7.607h5.332l5.149-7.607h3.362l-6.147 8.805 6.121 9.017h-3.363l-5.069-7.448h-5.385v7.448zm22.676 0h-2.837V19.448h14.001v2.58H472.22v5.533h10.77v2.554h-10.77v7.155zm16.11 0h-2.837V19.448h9.141c3.992 0 6.461 1.915 6.461 5.24 0 2.953-1.917 4.761-5.227 4.948v.186c1.366.372 1.997 1.17 2.627 2.288l2.942 5.16h-3.257l-2.811-4.921c-.788-1.41-1.602-1.995-3.809-1.995h-3.23v6.916zm0-15.242v6.118h6.277c2.364 0 3.546-.825 3.546-3.059 0-2.181-1.182-3.059-3.546-3.059h-6.277zm17.648 15.242h-2.837V19.448h2.837V37.27zm10.796 0h-8.012V19.448h8.012c5.464 0 8.905 3.405 8.905 8.911s-3.441 8.911-8.905 8.911zm0-15.242h-5.201V34.69h5.201c4.071 0 5.91-1.756 5.91-6.331s-1.839-6.331-5.91-6.331zm12.857 15.242h-3.152l7.854-17.822h3.993l7.854 17.822h-3.205l-2.023-4.628h-9.298l-2.023 4.628zm5.542-12.635l-2.39 5.426h7.04l-2.391-5.426-1.024-2.527h-.21l-1.025 2.527zm21.356 12.635h-2.811v-6.145l-7.722-11.677h3.467l4.15 6.331 1.471 2.261h.21l1.445-2.261 4.124-6.331h3.494l-7.828 11.731v6.091z" fill="#00d9ff"/><g class="B"><path d="M750.67 63.562c-13.722 0-19.345-6.017-19.345-19.346 0-13.103 7.367-19.458 18.614-19.458 10.292 0 16.928 4.949 16.928 12.654v.45h-9.392v-.45c0-3.262-2.137-4.555-7.536-4.555-6.917 0-9.616 2.193-9.616 9.898v2.475h.618c1.575-3.037 5.624-5.511 12.373-5.511 9.279 0 14.453 3.768 14.453 11.473 0 7.536-5.905 12.372-17.097 12.372zm-.449-8.098c6.692 0 8.716-1.575 8.716-4.893 0-3.487-1.968-5.005-8.66-5.005-7.086 0-9.279 1.518-9.279 4.893s2.249 5.005 9.223 5.005zm39.484 8.098c-12.147 0-18.839-7.648-18.839-19.402 0-11.697 6.692-19.402 18.839-19.402 12.091 0 18.84 7.705 18.84 19.402 0 11.754-6.749 19.402-18.84 19.402zm0-8.211c7.142 0 9.785-3.093 9.785-11.191s-2.643-11.191-9.785-11.191c-7.198 0-9.785 3.093-9.785 11.191s2.587 11.191 9.785 11.191zm30.917-11.866c-6.243 0-9.898-3.768-9.898-9.392s3.655-9.448 9.898-9.448c6.298 0 9.954 3.824 9.954 9.448s-3.656 9.392-9.954 9.392zM820.847 63h-8.155l31.999-37.679h8.155L820.847 63zm-.225-25.026c2.98 0 3.936-1.069 3.936-3.88s-.956-3.937-3.936-3.937c-2.925 0-3.881 1.125-3.881 3.937s.956 3.88 3.881 3.88zm24.238 25.644c-6.242 0-9.954-3.768-9.954-9.392s3.712-9.392 9.954-9.392 9.954 3.768 9.954 9.392-3.711 9.392-9.954 9.392zm0-5.511c2.925 0 3.937-1.069 3.937-3.88s-1.012-3.937-3.937-3.937-3.936 1.125-3.936 3.937 1.012 3.88 3.936 3.88zm41.152 5.455c-12.485 0-20.245-7.648-20.245-19.402s7.76-19.402 20.245-19.402c12.766 0 20.471 7.648 20.471 19.402s-7.705 19.402-20.471 19.402zm0-8.098c8.267 0 11.473-2.924 11.473-11.304s-3.206-11.304-11.473-11.304-11.304 2.924-11.304 11.304 3.037 11.304 11.304 11.304zM918.597 63h-8.436V25.321h31.887v7.592h-23.451v8.492h22.608v7.536h-22.608V63zm35.478 0h-8.436V25.321h31.887v7.592h-23.451v8.492h22.608v7.536h-22.608V63z"/><rect x="709.365" y="20.219" width="39.481" height="15.881" rx="4.017" transform="rotate(345 709.365 20.219)" fill-opacity=".2"/><path d="M721.61 28.388c-.491.132-.963.154-1.416.068a2.33 2.33 0 0 1-1.19-.638c-.34-.339-.592-.812-.755-1.42l-1.128-4.21 1.164-.312 1.131 4.22c.099.369.242.656.429.862s.407.341.659.406c.258.056.539.043.843-.038.31-.083.559-.213.748-.388a1.24 1.24 0 0 0 .369-.681c.058-.272.038-.593-.06-.961l-1.131-4.22 1.164-.312 1.128 4.21c.163.608.179 1.144.047 1.61a2.31 2.31 0 0 1-.731 1.152c-.356.303-.779.521-1.271.652zm4.487.96l-1.882-7.023 1.038-.278.316.674c.065-.17.153-.335.262-.497a1.79 1.79 0 0 1 .45-.453 2.2 2.2 0 0 1 .697-.311c.459-.123.893-.118 1.303.015.416.131.777.364 1.081.698.303.328.52.738.652 1.229s.146.959.043 1.402a2.37 2.37 0 0 1-.593 1.126c-.29.314-.661.531-1.114.652-.369.099-.71.117-1.025.056-.309-.07-.583-.211-.82-.425l.756 2.823-1.164.312zm1.74-3.71c.272-.073.497-.202.676-.389a1.35 1.35 0 0 0 .349-.676c.06-.266.05-.551-.032-.855-.083-.31-.217-.566-.402-.765-.179-.202-.392-.338-.64-.411s-.508-.072-.78.001c-.278.075-.506.205-.685.392-.172.185-.289.41-.349.676-.054.264-.041.548.041.852a1.86 1.86 0 0 0 .393.768c.183.193.397.33.64.411.248.072.511.071.789-.003zm7.947-1.173l-1.567-5.849-1.998.535-.252-.941 5.151-1.38.252.941-1.999.535 1.568 5.849-1.155.309zm5.513-1.352c-.466.125-.915.131-1.347.018-.427-.121-.799-.344-1.115-.668-.311-.332-.533-.748-.666-1.246-.137-.511-.15-.986-.039-1.425a2.38 2.38 0 0 1 .632-1.136c.316-.32.707-.543 1.172-.668a2.48 2.48 0 0 1 1.34-.006 2.31 2.31 0 0 1 1.112.659c.316.324.542.742.679 1.253s.15.986.038 1.424a2.44 2.44 0 0 1-.641 1.139c-.311.312-.7.531-1.165.655zm-.268-.999a1.21 1.21 0 0 0 .584-.344c.163-.168.271-.385.325-.649s.035-.567-.057-.91-.226-.612-.403-.807c-.172-.203-.371-.337-.596-.402a1.21 1.21 0 0 0-.677-.006c-.227.061-.421.175-.584.344s-.271.384-.325.648c-.056.258-.038.558.054.901s.227.615.406.817.377.335.596.402c.225.065.451.066.677.006z"/></g><g clip-path="url(#I)" fill="#fcffff"><path d="M1138.15 44.375c.01-4.214-3.4-7.64-7.61-7.651-4.22-.011-7.64 3.396-7.65 7.61-.01 2.11.86 4.127 2.39 5.574l-1.59 2.789 1.2.692 1.48-2.605a7.6 7.6 0 0 0 8.25 0l1.48 2.605 1.19-.692-1.54-2.789c1.53-1.435 2.39-3.437 2.4-5.533zm-5.05 1.153h-3a.69.69 0 0 1-.69-.692v-3.85a.69.69 0 1 1 1.38 0v3.158h2.31a.692.692 0 1 1 0 1.383zm-6.6-9.877c-.01-.005-.01-.009-.02-.013a3.5 3.5 0 0 0-4.95-.001c-1.37 1.369-1.37 3.588 0 4.956a.68.68 0 0 0 .96.001l3.99-3.965c.28-.266.28-.704.02-.978zm12.96-.012c-.65-.645-1.53-1.009-2.44-1.015-.93-.003-1.81.362-2.47 1.014a.7.7 0 0 0 0 .968l3.97 3.988a.68.68 0 0 0 .96 0 3.49 3.49 0 0 0-.02-4.955z"/></g><path d="M1146.2 50.5V37.409h2.37v11.103h5.77V50.5h-8.14zm10.09 0v-9.818h2.32V50.5h-2.32zm1.16-11.212a1.34 1.34 0 0 1-.94-.364c-.27-.247-.4-.543-.4-.889s.13-.646.4-.889c.26-.247.58-.371.94-.371.38 0 .69.124.95.371.27.243.4.539.4.889s-.13.641-.4.889a1.33 1.33 0 0 1-.95.364zm3.53 11.212v-9.818h2.22v1.668h.11c.21-.562.54-1.001 1.02-1.317.47-.32 1.04-.479 1.69-.479.67 0 1.23.162 1.68.486a2.5 2.5 0 0 1 .97 1.31h.11c.21-.545.58-.98 1.1-1.304s1.13-.492 1.84-.492c.91 0 1.64.285 2.22.856.57.571.85 1.404.85 2.499v6.59h-2.32v-6.232c0-.609-.16-1.055-.48-1.336-.33-.286-.72-.428-1.19-.428-.56 0-1 .175-1.31.524s-.47.795-.47 1.349V50.5h-2.27v-6.328c0-.507-.15-.912-.46-1.215-.3-.303-.7-.454-1.19-.454a1.71 1.71 0 0 0-.91.256c-.27.166-.49.403-.65.709s-.24.656-.24 1.061v5.97h-2.32zm16.16 0v-9.818h2.31V50.5h-2.31zm1.16-11.212a1.34 1.34 0 0 1-.94-.364c-.27-.247-.4-.543-.4-.889s.13-.646.4-.889c.26-.247.58-.371.94-.371.37 0 .69.124.95.371a1.17 1.17 0 0 1 .39.889c0 .345-.13.641-.39.889s-.58.364-.95.364zm8.44 1.393v1.79h-5.65v-1.79h5.65zm-4.26-2.352h2.32v9.217c0 .311.05.55.14.716a.75.75 0 0 0 .38.332 1.48 1.48 0 0 0 .53.09c.14 0 .27-.011.39-.032l.28-.058.39 1.809c-.12.043-.3.09-.53.141-.22.051-.5.081-.83.09-.58.017-1.1-.07-1.56-.262-.47-.196-.84-.499-1.11-.908s-.4-.921-.4-1.534V38.33zm10.43 12.362c-.98 0-1.83-.205-2.55-.614-.71-.413-1.26-.997-1.64-1.751-.39-.759-.58-1.651-.58-2.678 0-1.01.19-1.896.58-2.659s.93-1.364 1.62-1.79c.7-.43 1.51-.646 2.45-.646a4.89 4.89 0 0 1 1.71.294 3.85 3.85 0 0 1 1.43.895c.42.405.75.921.99 1.547s.36 1.364.36 2.224v.709h-8.05v-1.56h5.83c-.01-.443-.1-.837-.29-1.183a2.14 2.14 0 0 0-.78-.825c-.34-.2-.72-.3-1.17-.3-.47 0-.89.115-1.24.345-.36.226-.64.524-.84.895a2.48 2.48 0 0 0-.3 1.208v1.362c0 .571.1 1.061.31 1.47a2.22 2.22 0 0 0 .88.933c.37.213.81.32 1.31.32.34 0 .64-.047.92-.141.27-.098.51-.241.71-.428s.35-.42.45-.697l2.16.243c-.13.571-.39 1.07-.78 1.496a3.76 3.76 0 0 1-1.46.984c-.59.23-1.27.345-2.03.345zm9.97-.019c-.77 0-1.46-.198-2.07-.595s-1.09-.972-1.45-1.726c-.35-.754-.53-1.67-.53-2.749 0-1.091.18-2.011.54-2.761s.85-1.323 1.46-1.707a3.78 3.78 0 0 1 2.05-.582c.58 0 1.05.098 1.42.294s.67.424.89.697c.21.269.38.522.5.761h.1v-4.896h2.32V50.5h-2.28v-1.547h-.14a3.82 3.82 0 0 1-.52.761c-.22.264-.52.49-.89.678s-.84.281-1.4.281zm.64-1.899c.49 0 .91-.132 1.26-.396.34-.268.6-.641.78-1.119s.27-1.033.27-1.668-.09-1.187-.27-1.655c-.17-.469-.43-.833-.78-1.093-.34-.26-.76-.39-1.26-.39-.51 0-.94.134-1.29.403-.34.269-.6.639-.78 1.112-.17.473-.26 1.014-.26 1.624s.09 1.161.26 1.643c.18.477.44.854.79 1.131s.78.409 1.28.409zm11.04-9.377v-1.988h10.45v1.988h-4.05V50.5h-2.35V39.397h-4.05zm12.36 11.103v-9.818h2.31V50.5h-2.31zm1.16-11.212a1.34 1.34 0 0 1-.94-.364c-.27-.247-.4-.543-.4-.889s.13-.646.4-.889c.26-.247.58-.371.94-.371.37 0 .69.124.95.371s.4.539.4.889-.14.641-.4.889-.58.364-.95.364zm3.53 11.212v-9.818h2.22v1.668h.11a2.55 2.55 0 0 1 1.02-1.317c.47-.32 1.03-.479 1.69-.479.67 0 1.23.162 1.68.486a2.5 2.5 0 0 1 .97 1.31h.11c.21-.545.58-.98 1.1-1.304.51-.328 1.13-.492 1.84-.492.91 0 1.64.285 2.21.856.58.571.86 1.404.86 2.499v6.59h-2.32v-6.232c0-.609-.16-1.055-.49-1.336-.32-.286-.72-.428-1.18-.428-.56 0-1 .175-1.31.524-.32.345-.47.795-.47 1.349V50.5h-2.27v-6.328c0-.507-.15-.912-.46-1.215-.3-.303-.7-.454-1.19-.454a1.71 1.71 0 0 0-.91.256c-.27.166-.49.403-.65.709s-.24.656-.24 1.061v5.97h-2.32zm20.5.192c-.98 0-1.83-.205-2.55-.614-.71-.413-1.26-.997-1.64-1.751s-.57-1.651-.57-2.678c0-1.01.19-1.896.57-2.659.39-.767.93-1.364 1.63-1.79.69-.43 1.51-.646 2.44-.646.61 0 1.18.098 1.72.294a3.93 3.93 0 0 1 1.43.895c.42.405.74.921.98 1.547s.36 1.364.36 2.224v.709h-8.05v-1.56h5.83c0-.443-.1-.837-.29-1.183-.18-.349-.44-.624-.78-.825-.33-.2-.72-.3-1.16-.3-.48 0-.89.115-1.25.345s-.64.524-.84.895c-.19.366-.29.769-.3 1.208v1.362c0 .571.11 1.061.31 1.47a2.22 2.22 0 0 0 .88.933c.37.213.81.32 1.32.32.33 0 .64-.047.91-.141s.51-.241.71-.428.35-.42.45-.697l2.16.243c-.13.571-.39 1.07-.78 1.496-.37.422-.86.75-1.45.984-.6.23-1.27.345-2.04.345zm22.59-6.737c0 1.411-.26 2.619-.79 3.624-.52 1.002-1.24 1.768-2.15 2.301-.9.533-1.93.799-3.07.799-1.15 0-2.18-.266-3.08-.799-.91-.537-1.62-1.306-2.15-2.308s-.79-2.212-.79-3.618.26-2.616.79-3.618 1.24-1.775 2.15-2.307c.9-.533 1.93-.799 3.08-.799 1.14 0 2.17.266 3.07.799.91.533 1.63 1.302 2.15 2.307.53 1.002.79 2.207.79 3.618zm-2.38 0c0-.993-.16-1.83-.47-2.512s-.73-1.204-1.28-1.553c-.54-.354-1.17-.531-1.88-.531s-1.34.177-1.89.531c-.54.349-.97.867-1.28 1.553s-.46 1.519-.46 2.512.15 1.832.46 2.518.74 1.2 1.28 1.553c.55.349 1.18.524 1.89.524s1.34-.175 1.88-.524c.55-.354.97-.871 1.28-1.553s.47-1.526.47-2.518zm9.5-3.273v1.79h-5.81v-1.79h5.81zm-4.36 9.818V39.755c0-.661.14-1.21.41-1.649.28-.439.65-.767 1.11-.984.47-.217.98-.326 1.55-.326.4 0 .76.032 1.07.096l.69.173-.46 1.79c-.1-.03-.22-.06-.37-.09a2.28 2.28 0 0 0-.5-.051c-.43 0-.74.104-.92.313-.17.205-.26.499-.26.882V50.5h-2.32zm11.14-9.818v1.79h-5.8v-1.79h5.8zm-4.35 9.818V39.755c0-.661.13-1.21.41-1.649.27-.439.64-.767 1.11-.984.46-.217.98-.326 1.55-.326.4 0 .75.032 1.06.096l.69.173-.46 1.79a3.38 3.38 0 0 0-.37-.09c-.15-.034-.31-.051-.5-.051-.43 0-.73.104-.91.313-.17.205-.26.499-.26.882V50.5h-2.32zm10.14.192c-.98 0-1.83-.205-2.55-.614-.71-.413-1.26-.997-1.64-1.751-.39-.759-.58-1.651-.58-2.678 0-1.01.19-1.896.58-2.659a4.32 4.32 0 0 1 1.62-1.79c.69-.43 1.51-.646 2.45-.646.6 0 1.17.098 1.71.294a3.85 3.85 0 0 1 1.43.895c.42.405.75.921.99 1.547s.36 1.364.36 2.224v.709h-8.05v-1.56h5.83c-.01-.443-.1-.837-.29-1.183s-.45-.624-.79-.825c-.33-.2-.72-.3-1.16-.3-.47 0-.89.115-1.25.345a2.42 2.42 0 0 0-.83.895 2.48 2.48 0 0 0-.3 1.208v1.362c0 .571.1 1.061.31 1.47a2.22 2.22 0 0 0 .88.933c.37.213.81.32 1.31.32.34 0 .64-.047.92-.141.27-.098.51-.241.71-.428s.35-.42.45-.697l2.16.243a3.44 3.44 0 0 1-.78 1.496c-.38.422-.87.75-1.46.984s-1.27.345-2.03.345zm6.32-.192v-9.818h2.25v1.636h.1c.18-.567.49-1.004.92-1.31.44-.311.94-.467 1.5-.467l.43.019c.16.008.3.023.4.045v2.129a2.42 2.42 0 0 0-.46-.09 4.4 4.4 0 0 0-.61-.045c-.42 0-.8.092-1.14.275-.33.179-.59.428-.79.748-.19.32-.28.688-.28 1.106V50.5h-2.32zm8.73-1.79l-.08.703a10.91 10.91 0 0 1-.32 1.636l-.47 1.541-.41 1.106h-1.56l.25-1.061.3-1.509c.1-.558.17-1.125.2-1.7l.05-.716h2.04zm15.53-7.121c-.11-.345-.26-.654-.44-.927-.19-.277-.41-.514-.67-.709s-.55-.343-.88-.441a3.7 3.7 0 0 0-1.09-.153c-.7 0-1.33.177-1.88.531s-.98.874-1.3 1.56c-.31.682-.46 1.513-.46 2.493 0 .989.15 1.826.46 2.512.32.686.75 1.208 1.3 1.566.56.354 1.2.531 1.93.531.67 0 1.24-.128 1.73-.384s.87-.618 1.13-1.087.4-1.027.4-1.662l.53.083h-3.55v-1.854h5.31v1.572c0 1.121-.24 2.09-.71 2.908-.48.818-1.14 1.449-1.97 1.892-.84.439-1.8.658-2.88.658-1.21 0-2.26-.271-3.18-.812-.9-.545-1.61-1.319-2.13-2.32-.5-1.006-.76-2.199-.76-3.58 0-1.057.15-2.001.45-2.832s.73-1.536 1.27-2.116 1.17-1.027 1.9-1.33 1.52-.46 2.38-.46a6.31 6.31 0 0 1 2.03.32c.62.209 1.18.507 1.66.895a4.91 4.91 0 0 1 1.21 1.381c.32.533.52 1.121.62 1.764h-2.41zm9.06 9.102c-.99 0-1.84-.205-2.55-.614s-1.26-.997-1.64-1.751c-.39-.759-.58-1.651-.58-2.678 0-1.01.19-1.896.58-2.659.38-.767.92-1.364 1.62-1.79.69-.43 1.51-.646 2.45-.646.6 0 1.17.098 1.71.294a3.85 3.85 0 0 1 1.43.895c.42.405.75.921.99 1.547s.35 1.364.35 2.224v.709h-8.04v-1.56h5.83c-.01-.443-.1-.837-.29-1.183s-.45-.624-.79-.825c-.33-.2-.72-.3-1.16-.3-.47 0-.89.115-1.25.345a2.34 2.34 0 0 0-.83.895c-.2.366-.3.769-.31 1.208v1.362c0 .571.11 1.061.32 1.47a2.26 2.26 0 0 0 .87.933c.38.213.82.32 1.32.32a2.75 2.75 0 0 0 .91-.141c.28-.098.51-.241.71-.428s.36-.42.46-.697l2.16.243a3.44 3.44 0 0 1-.78 1.496c-.38.422-.87.75-1.46.984s-1.27.345-2.03.345zm11.22-10.01v1.79h-5.64v-1.79h5.64zM1341 38.33h2.32v9.217c0 .311.04.55.14.716a.75.75 0 0 0 .38.332 1.48 1.48 0 0 0 .53.09c.14 0 .27-.011.39-.032l.28-.058.39 1.809c-.12.043-.3.09-.53.141-.22.051-.5.081-.83.09-.58.017-1.1-.07-1.56-.262-.47-.196-.84-.499-1.11-.908s-.4-.921-.4-1.534V38.33zm10.65 12.17v-9.818h2.32V50.5h-2.32zm1.17-11.212c-.37 0-.68-.122-.95-.364-.26-.247-.39-.543-.39-.889a1.17 1.17 0 0 1 .39-.889 1.35 1.35 0 0 1 .95-.371 1.31 1.31 0 0 1 .94.371c.27.243.4.539.4.889s-.13.641-.4.889a1.32 1.32 0 0 1-.94.364zm8.43 1.393v1.79h-5.64v-1.79h5.64zM1357 38.33h2.31v9.217c0 .311.05.55.14.716a.77.77 0 0 0 .39.332c.16.06.33.09.52.09a2.27 2.27 0 0 0 .4-.032l.28-.058.39 1.809c-.12.043-.3.09-.53.141s-.5.081-.83.09c-.58.017-1.1-.07-1.57-.262a2.43 2.43 0 0 1-1.1-.908c-.27-.409-.4-.921-.4-1.534V38.33zm21.51-.92V50.5h-2.11l-6.17-8.917h-.11V50.5h-2.37V37.409h2.13l6.16 8.923h.11v-8.923h2.36zm6.77 13.283c-.96 0-1.79-.211-2.5-.633a4.25 4.25 0 0 1-1.63-1.77c-.39-.759-.58-1.645-.58-2.659s.19-1.903.58-2.666c.38-.763.93-1.355 1.63-1.777.71-.422 1.54-.633 2.5-.633.95 0 1.79.211 2.49.633s1.24 1.014 1.63 1.777.58 1.651.58 2.666-.19 1.901-.58 2.659-.93 1.349-1.63 1.77-1.54.633-2.49.633zm.01-1.854c.52 0 .95-.143 1.3-.428s.61-.678.78-1.163c.18-.486.26-1.027.26-1.623s-.08-1.144-.26-1.63c-.17-.49-.43-.88-.78-1.17s-.78-.435-1.3-.435c-.53 0-.98.145-1.33.435s-.61.68-.79 1.17c-.17.486-.25 1.029-.25 1.63s.08 1.138.25 1.624c.18.486.44.874.79 1.163s.8.428 1.33.428zm8.4 1.662l-2.78-9.818h2.36l1.73 6.903h.09l1.76-6.903h2.34l1.76 6.865h.1l1.7-6.865h2.36l-2.78 9.818h-2.41l-1.84-6.635h-.13l-1.84 6.635h-2.42zm15.87-13.091l-.21 9.243h-2.06l-.21-9.243h2.48zm-1.24 13.231c-.39 0-.72-.136-1-.409-.27-.273-.41-.605-.41-.997 0-.383.14-.712.41-.984.28-.273.61-.409 1-.409.38 0 .71.136.98.409.28.273.42.601.42.984a1.33 1.33 0 0 1-.19.709 1.51 1.51 0 0 1-.51.511c-.21.123-.45.185-.7.185z" class="B"/><g filter="url(#B)"><rect x="1471.5" y="18.964" width="157.5" height="50.073" rx="24.792" fill="#ff39f8" shape-rendering="crispEdges"/><g filter="url(#C)" class="B"><path d="M1502.07 42.08a3.4 3.4 0 0 0-.39-.824 2.69 2.69 0 0 0-.59-.631c-.23-.174-.49-.305-.79-.392-.29-.091-.62-.136-.96-.136-.63 0-1.19.157-1.68.472-.48.314-.87.777-1.15 1.386s-.41 1.345-.41 2.216c0 .879.13 1.623.41 2.233s.66 1.074 1.15 1.392c.5.314 1.07.472 1.72.472.59 0 1.1-.114 1.53-.341a2.36 2.36 0 0 0 1.01-.966c.24-.42.35-.913.35-1.477l.48.074h-3.16v-1.648h4.72v1.398c0 .996-.21 1.858-.63 2.585a4.4 4.4 0 0 1-1.75 1.682c-.75.39-1.6.585-2.56.585-1.07 0-2.01-.241-2.82-.722s-1.44-1.172-1.9-2.062c-.45-.894-.67-1.955-.67-3.182 0-.939.13-1.778.4-2.517.26-.739.64-1.365 1.12-1.881s1.05-.913 1.69-1.182c.65-.273 1.36-.409 2.12-.409.64 0 1.24.095 1.8.284.55.186 1.05.451 1.48.796.44.345.79.754 1.07 1.227.29.473.47.996.56 1.568h-2.15zm4.19 7.92v-8.727h1.99v1.455h.1a2.15 2.15 0 0 1 .81-1.165c.39-.276.84-.415 1.34-.415l.38.017c.14.008.26.021.36.04v1.892a2.28 2.28 0 0 0-.42-.08c-.18-.027-.36-.04-.54-.04a2.09 2.09 0 0 0-1.01.244c-.29.159-.53.381-.7.665s-.25.612-.25.983V50h-2.06zm8.7.176c-.55 0-1.05-.098-1.5-.295-.43-.201-.78-.496-1.04-.886-.25-.39-.38-.871-.38-1.443 0-.492.09-.9.27-1.222a2.07 2.07 0 0 1 .75-.773c.31-.193.66-.339 1.06-.437a8.77 8.77 0 0 1 1.23-.222l1.25-.142c.31-.045.54-.114.69-.205s.22-.24.22-.437v-.034c0-.428-.13-.759-.38-.994s-.62-.352-1.1-.352c-.5 0-.9.11-1.2.33-.29.22-.48.479-.59.778l-1.92-.273c.15-.53.4-.973.75-1.33s.78-.629 1.28-.807 1.06-.273 1.67-.273a5.5 5.5 0 0 1 1.26.148c.41.098.79.261 1.14.489a2.51 2.51 0 0 1 .83.915c.21.386.32.869.32 1.449V50h-1.98v-1.199h-.07c-.12.242-.3.47-.53.682-.22.208-.5.377-.84.506s-.74.188-1.19.188zm.53-1.511c.42 0 .77-.081 1.08-.244.3-.167.53-.386.7-.659a1.74 1.74 0 0 0 .25-.892v-1.028c-.07.053-.18.102-.33.148a5.32 5.32 0 0 1-.52.119l-.56.091-.48.068c-.31.042-.58.11-.82.205-.25.095-.44.227-.58.398s-.21.383-.21.648c0 .379.14.665.42.858.27.193.62.29 1.05.29zm6.24 1.335V38.364h2.05v4.352h.09c.1-.212.25-.437.45-.676.19-.242.45-.449.78-.619s.75-.261 1.26-.261a3.35 3.35 0 0 1 1.83.517c.54.341.97.847 1.29 1.517s.48 1.485.48 2.455c0 .958-.15 1.773-.47 2.443-.31.671-.74 1.182-1.28 1.534s-1.16.528-1.84.528c-.5 0-.92-.083-1.25-.25s-.59-.367-.79-.602a3.74 3.74 0 0 1-.46-.676h-.12V50h-2.02zm2.01-4.364c0 .564.08 1.059.24 1.483s.4.756.7.994c.31.235.68.352 1.11.352.46 0 .84-.121 1.15-.364.3-.246.53-.581.69-1.006s.24-.915.24-1.46-.08-1.023-.24-1.443c-.15-.42-.38-.75-.69-.989s-.69-.358-1.15-.358c-.44 0-.81.115-1.12.347a2.1 2.1 0 0 0-.69.972c-.16.417-.24.907-.24 1.472zm16.3-4.364v1.591h-5.02v-1.591h5.02zm-3.78-2.091h2.06v8.193c0 .276.04.489.12.636.09.144.2.242.34.295s.3.08.47.08a1.93 1.93 0 0 0 .35-.028l.25-.051.35 1.608c-.11.038-.27.08-.47.125s-.45.072-.74.08c-.52.015-.98-.062-1.39-.233-.42-.174-.74-.443-.99-.807-.24-.364-.35-.818-.35-1.364v-8.534zm7.74 5.705V50h-2.05V38.364h2.01v4.392h.1c.21-.492.52-.881.95-1.165s.98-.432 1.65-.432c.6 0 1.13.127 1.58.381s.8.625 1.05 1.114.37 1.085.37 1.79V50h-2.05v-5.239c0-.587-.15-1.044-.46-1.369-.3-.33-.72-.494-1.26-.494-.36 0-.69.08-.98.239a1.74 1.74 0 0 0-.67.676c-.16.295-.24.653-.24 1.074zm11.62 5.284c-.87 0-1.63-.182-2.26-.545-.64-.367-1.12-.886-1.46-1.557s-.52-1.468-.52-2.381c0-.898.18-1.686.52-2.364a3.81 3.81 0 0 1 1.44-1.591c.62-.383 1.34-.574 2.18-.574.53 0 1.04.087 1.52.261a3.46 3.46 0 0 1 1.27.795c.37.36.66.818.88 1.375.21.553.31 1.212.31 1.977v.631h-7.15v-1.386h5.18c0-.394-.09-.744-.25-1.051a1.88 1.88 0 0 0-.7-.733c-.3-.178-.64-.267-1.04-.267-.42 0-.79.102-1.1.307a2.13 2.13 0 0 0-.75.795c-.17.326-.26.684-.27 1.074v1.21c0 .508.1.943.28 1.307a2.04 2.04 0 0 0 .78.83c.33.189.73.284 1.17.284a2.46 2.46 0 0 0 .81-.125c.25-.087.46-.214.64-.381a1.66 1.66 0 0 0 .4-.619l1.92.216c-.12.508-.35.951-.69 1.329s-.77.667-1.3.875-1.13.307-1.81.307zm13.63-.17h-3.95V38.364h4.03c1.15 0 2.14.233 2.97.699.84.462 1.48 1.127 1.92 1.994.45.867.67 1.905.67 3.114s-.22 2.254-.67 3.125-1.09 1.54-1.94 2.006c-.84.466-1.85.699-3.03.699zm-1.84-1.824h1.73c.82 0 1.49-.148 2.03-.443s.95-.744 1.22-1.335c.28-.595.41-1.337.41-2.227s-.13-1.629-.41-2.216c-.27-.591-.67-1.032-1.21-1.324-.53-.295-1.18-.443-1.97-.443h-1.8v7.989zm13.26 1.994c-.87 0-1.63-.182-2.27-.545-.63-.367-1.12-.886-1.46-1.557s-.51-1.468-.51-2.381c0-.898.17-1.686.51-2.364.35-.682.83-1.212 1.45-1.591.61-.383 1.34-.574 2.17-.574.54 0 1.05.087 1.53.261a3.46 3.46 0 0 1 1.27.795c.37.36.66.818.87 1.375.22.553.32 1.212.32 1.977v.631h-7.15v-1.386h5.18c0-.394-.09-.744-.26-1.051-.16-.311-.4-.555-.7-.733-.29-.178-.64-.267-1.03-.267-.42 0-.79.102-1.11.307s-.56.466-.74.795-.26.684-.27 1.074v1.21c0 .508.09.943.28 1.307a2.04 2.04 0 0 0 .78.83c.33.189.72.284 1.17.284a2.46 2.46 0 0 0 .81-.125 1.84 1.84 0 0 0 .63-.381c.18-.167.31-.373.41-.619l1.92.216c-.13.508-.36.951-.7 1.329-.33.375-.77.667-1.29.875-.53.205-1.13.307-1.81.307zm8.13.006c-.55 0-1.05-.098-1.49-.295a2.46 2.46 0 0 1-1.05-.886c-.25-.39-.38-.871-.38-1.443 0-.492.09-.9.27-1.222.19-.322.43-.58.75-.773.31-.193.67-.339 1.06-.437a8.77 8.77 0 0 1 1.23-.222l1.25-.142c.32-.045.55-.114.69-.205.15-.095.22-.24.22-.437v-.034c0-.428-.12-.759-.38-.994-.25-.235-.62-.352-1.09-.352-.51 0-.91.11-1.2.33s-.49.479-.59.778l-1.92-.273c.15-.53.4-.973.75-1.33.34-.36.77-.629 1.27-.807.51-.182 1.07-.273 1.68-.273.42 0 .83.049 1.25.148a3.45 3.45 0 0 1 1.14.489c.35.223.62.528.83.915s.32.869.32 1.449V50h-1.98v-1.199h-.06c-.13.242-.31.47-.53.682-.23.208-.51.377-.85.506s-.73.188-1.19.188zm.54-1.511c.41 0 .77-.081 1.07-.244s.54-.386.7-.659a1.65 1.65 0 0 0 .25-.892v-1.028c-.07.053-.17.102-.33.148-.15.046-.32.085-.51.119l-.56.091-.49.068c-.3.042-.58.11-.82.205a1.37 1.37 0 0 0-.57.398c-.14.167-.21.383-.21.648 0 .379.13.665.41.858s.63.29 1.06.29zm8.2-10.301V50h-2.06V38.364h2.06zm9.01 5.216l-1.88.205a1.36 1.36 0 0 0-.28-.534c-.12-.167-.3-.301-.52-.403s-.49-.153-.8-.153c-.43 0-.79.093-1.08.278s-.43.426-.43.722c0 .254.09.46.28.619s.51.29.95.392l1.49.318c.83.178 1.44.46 1.84.847.41.386.61.892.62 1.517-.01.549-.17 1.034-.49 1.454-.31.417-.75.742-1.31.977s-1.2.352-1.93.352c-1.07 0-1.93-.223-2.58-.67s-1.04-1.078-1.17-1.881l2.01-.193c.09.394.28.691.58.892.29.201.68.301 1.15.301.49 0 .88-.1 1.18-.301s.45-.449.45-.744c0-.25-.1-.456-.29-.619s-.49-.288-.89-.375l-1.49-.312c-.83-.174-1.45-.468-1.85-.881-.41-.417-.61-.943-.6-1.58-.01-.538.14-1.004.44-1.398s.71-.705 1.24-.921 1.15-.329 1.85-.329c1.02 0 1.82.218 2.41.653s.96 1.025 1.1 1.767z"/></g></g><defs><filter id="A" x="492.431" y="43.482" width="77.4" height="30.129" filterUnits="userSpaceOnUse" class="C"><feFlood result="A" class="D"/><feColorMatrix in="SourceAlpha" values="0 0 0 0 0 0 0 0 0 0 0 0 0 0 0 0 0 0 127 0" result="B"/><feOffset dx="0.959897" dy="1.91979"/><feGaussianBlur stdDeviation="1.92"/><feComposite in2="B" operator="out"/><feColorMatrix values="0 0 0 0 0 0 0 0 0 0 0 0 0 0 0 0 0 0 0.2 0"/><feBlend in2="A"/><feBlend in="SourceGraphic"/></filter><filter id="B" x="1466.19" y="13.651" width="175.208" height="67.781" filterUnits="userSpaceOnUse" class="C"><feFlood result="A" class="D"/><feColorMatrix in="SourceAlpha" values="0 0 0 0 0 0 0 0 0 0 0 0 0 0 0 0 0 0 127 0" result="B"/><feOffset dx="3.54167" dy="3.54167"/><feGaussianBlur stdDeviation="4.427"/><feComposite in2="B" operator="out"/><feColorMatrix values="0 0 0 0 0 0 0 0 0 0 0 0 0 0 0 0 0 0 0.2 0"/><feBlend in2="A"/><feBlend in="SourceGraphic"/></filter><filter id="C" x="1492.98" y="37.205" width="116.759" height="15.971" filterUnits="userSpaceOnUse" class="C"><feFlood result="A" class="D"/><feColorMatrix in="SourceAlpha" values="0 0 0 0 0 0 0 0 0 0 0 0 0 0 0 0 0 0 127 0" result="B"/><feOffset dx="1" dy="1"/><feGaussianBlur stdDeviation="1"/><feComposite in2="B" operator="out"/><feColorMatrix values="0 0 0 0 0 0 0 0 0 0 0 0 0 0 0 0 0 0 0.25 0"/><feBlend in2="A"/><feBlend in="SourceGraphic"/></filter><linearGradient id="D" x1="0" y1="44" x2="1720" y2="44" href="#J"><stop stop-color="#130340"/><stop offset=".505" stop-color="#3f1787"/><stop offset="1" stop-color="#130340"/></linearGradient><radialGradient id="E" cx="0" cy="0" r="1" gradientTransform="translate(528.739 41.3991) scale(53.1345 64.8339)" href="#J"><stop offset=".095" stop-color="#311171"/><stop offset=".239" stop-color="#4b2499"/><stop offset=".716" stop-color="#280d64"/><stop offset=".777" stop-color="#1e005d"/></radialGradient><radialGradient id="F" cx="0" cy="0" r="1" gradientTransform="matrix(28.2401 -28.7183 2.53149 2.48819 505.123 57.0569)" href="#J"><stop/><stop offset=".563" stop-opacity="0"/></radialGradient><radialGradient id="G" cx="0" cy="0" r="1" gradientTransform="translate(329.929 9.10577) scale(57.5407 85.6861)" href="#J"><stop offset=".095" stop-color="#311171"/><stop offset=".239" stop-color="#4b2499"/><stop offset=".716" stop-color="#280d64"/><stop offset=".777" stop-color="#1e005d"/></radialGradient><clipPath id="H"><path transform="matrix(.727136 .686494 -.686494 .727136 524.9 36.5144)" d="M0 0h3.496v49.627H0z" class="B"/></clipPath><clipPath id="I"><path transform="translate(1120.5 34)" d="M0 0h20v20H0z" class="B"/></clipPath><linearGradient id="J" gradientUnits="userSpaceOnUse"/></defs></svg>